<?xml version="1.0" encoding="UTF-8"?>
<svg id="Layer_2" data-name="Layer 2" xmlns="http://www.w3.org/2000/svg" viewBox="0 0 4572.42 4572.42">
  <defs>
    <style>
      .cls-1 {
        fill: #231f20;
        stroke: #231f20;
        stroke-miterlimit: 0;
      }
    </style>
  </defs>
  <g id="Layer_1-2" data-name="Layer 1">
    <path class="cls-1" d="M4571.92,2285.78c0-240.7-329.68-455.54-845.61-596.32,265.33-464.43,346.57-849.5,176.35-1019.72-170.23-170.23-555.35-88.97-1019.83,176.41C2742.05,330.19,2527.21.5,2286.5.5s-455.44,329.52-596.22,845.25c-464.55-265.46-849.75-346.76-1020-176.51-170.26,170.26-88.95,555.47,176.52,1020.04C330.47,1830.05.5,2044.97.5,2285.78s329.91,455.69,846.17,596.47c-265.44,464.54-346.74,849.72-176.49,1019.97,170.23,170.23,555.37,88.97,1019.86-176.43,140.78,516.23,355.68,846.13,596.46,846.13s455.79-330.07,596.57-846.53c464.41,265.32,849.48,346.54,1019.69,176.33,170.21-170.21,88.99-555.26-176.31-1019.66,515.85-140.78,845.47-355.6,845.47-596.28ZM3782.63,1157.89c84.44,112,49.89,300.09-77.16,525.96-204.74-54.56-437.95-97.58-690.93-126.12-14.74-130.61-33.34-255.95-55.39-374.82,396.71-156.69,708.41-177.64,823.48-25.02ZM2116.85,3051.56c48.58,1.2,97.59,1.88,146.98,2.04-31.04,19.43-61.95,38.29-92.69,56.59-18.1-19.23-36.2-38.77-54.29-58.63ZM2765.09,3036.76c-47.57,174.02-102.03,333.64-161.12,474.24-87.33-68.63-177.42-147.27-268.62-234.79,88.43-72.05,177.46-148.77,266.38-229.83,55.1-2.55,109.58-5.77,163.36-9.62ZM2707.91,2947.46c35.22-33.52,70.37-67.7,105.42-102.53-8.22,35.7-16.74,70.91-25.54,105.6-26.4-.8-53.03-1.82-79.88-3.07ZM2659.6,2780.94c-68.83,51.89-137.73,101.43-206.33,148.48-83.04-7.86-167.56-17.76-253.17-29.77-85.23-11.95-168.85-25.62-250.51-40.84-53.18-64.31-105.97-131.1-158.03-200.15-51.94-68.88-101.52-137.84-148.59-206.5,7.84-82.69,17.71-166.84,29.66-252.06,12-85.58,25.73-169.54,41.02-251.52,64.13-53.02,130.73-105.65,199.58-157.56,68.98-52.01,138.03-101.65,206.79-148.8,82.76,7.85,166.99,17.72,252.3,29.69,85.69,12.02,169.75,25.77,251.83,41.08,52.94,64.05,105.5,130.56,157.33,199.31,51.97,68.92,101.57,137.92,148.68,206.62-7.86,83.12-17.77,167.72-29.79,253.4-11.97,85.33-25.66,169.05-40.89,250.81-64.22,53.11-130.93,105.82-199.88,157.81ZM1535.46,2764.31c-174.06-47.58-333.71-102.07-474.33-161.17,68.7-87.41,147.43-177.57,235.06-268.85,72,88.37,148.66,177.34,229.65,266.2,2.55,55.26,5.77,109.89,9.62,163.82ZM2456.77,1520.03c-48.64-1.21-97.7-1.9-147.14-2.07,31.08-19.43,62.02-38.31,92.79-56.63,18.12,19.25,36.24,38.82,54.35,58.7ZM1969.5,1060.3c87.34,68.67,177.44,147.34,268.66,234.9-88.49,72.08-177.59,148.84-266.57,229.94-55.13,2.54-109.63,5.75-163.43,9.6,47.63-174.12,102.17-333.81,161.34-474.44ZM1865.31,1624.14c-35.23,33.53-70.4,67.72-105.46,102.55,8.23-35.71,16.76-70.93,25.57-105.63,26.4.8,53.04,1.82,79.89,3.08ZM1525.89,1970.8c-37.12,40.73-73.33,81.48-108.6,122.19-89.44-156.73-163.81-308.16-221.45-449.39,110.28-13.2,229.58-21.27,355.95-23.86-11.6,113.53-20.32,230.8-25.9,351.06ZM1462.24,2170.09c19.18-18.05,38.69-36.11,58.5-54.16-1.2,48.47-1.89,97.36-2.06,146.62-19.37-30.96-38.18-61.8-56.44-92.46ZM1624.88,2706.79c33.67,35.38,68.01,70.7,103,105.91-35.87-8.26-71.24-16.82-106.1-25.66.8-26.52,1.83-53.28,3.1-80.25ZM2948.19,1864.2c-33.37-35.07-67.4-70.08-102.07-104.98,35.53,8.2,70.59,16.69,105.13,25.45-.8,26.29-1.81,52.8-3.06,79.53ZM3111.11,2401.38c-19.29,18.16-38.91,36.33-58.84,54.48,1.21-48.76,1.9-97.95,2.05-147.51,19.49,31.16,38.42,62.18,56.79,93.03ZM3047.14,2600.95c37.21-40.84,73.52-81.7,108.88-122.52,89.42,156.75,163.76,308.19,221.38,449.43-110.32,13.23-229.67,21.34-356.1,23.94,11.58-113.47,20.28-230.67,25.84-350.85ZM3047.09,1970.35c-2.55-54.97-5.76-109.31-9.6-162.96,174.07,47.61,333.73,102.13,474.34,161.26-68.58,87.28-147.17,177.31-234.64,268.45-72.12-88.55-148.94-177.71-230.1-266.75ZM2928.6,1195.18c13.22,110.25,21.31,229.53,23.92,355.87-113.38-11.58-230.48-20.29-350.57-25.86-40.8-37.2-81.62-73.48-122.4-108.81,156.62-89.34,307.92-163.62,449.05-221.2ZM2546.8,430.54c138.88,19.48,247.44,176.87,317.32,426.37-183.23,106.14-378.41,240.54-577.34,399.12-102.82-82-204.65-157.53-304.34-226.04,169.67-391,375.17-625.99,564.36-599.45ZM1158.42,789.26c112.05-84.48,300.25-49.86,526.25,77.32-54.6,204.77-97.63,438.03-126.2,691.08-130.64,14.73-256.01,33.31-374.91,55.35-156.8-396.84-177.79-708.66-25.14-823.75ZM430.54,2025.48c19.5-139,177.15-247.63,427.02-317.51,106.22,183.34,240.74,378.65,399.45,577.7-82.05,102.89-157.63,204.78-226.17,304.54-391.51-169.74-626.86-375.4-600.3-564.73ZM790.2,3414.08c-84.47-112.04-49.86-300.23,77.3-526.22,204.74,54.53,437.93,97.51,690.87,126.03,14.74,130.72,33.34,256.17,55.39,375.13-396.75,156.73-708.49,177.69-823.56,25.06ZM1644.34,3376.74c-13.21-110.35-21.29-229.73-23.88-356.18,113.62,11.6,230.99,20.31,351.35,25.87,40.77,37.15,81.56,73.39,122.3,108.68-156.87,89.53-308.43,163.96-449.77,221.63ZM2026.2,4141.88c-138.97-19.5-247.57-177.07-317.45-426.84,183.44-106.28,378.86-240.87,578.03-399.69,102.81,81.96,204.61,157.46,304.28,225.93-169.77,391.69-375.48,627.17-564.86,600.6ZM3414.61,3781.7c-111.99,84.44-300.07,49.89-525.94-77.15,54.5-204.71,97.46-437.85,125.96-690.73,130.69-14.75,256.1-33.36,375.03-55.42,156.63,396.62,177.54,708.25,24.95,823.3ZM4141.88,2546.08c-19.48,138.85-176.8,247.39-426.19,317.28-106.19-183.33-240.67-378.63-399.36-577.69,81.9-102.74,157.36-204.48,225.79-304.09,391.18,169.7,626.31,375.26,599.76,564.5Z"/>
  </g>
</svg>